<svg width="62" height="20" viewBox="0 0 62 20" fill="none" xmlns="http://www.w3.org/2000/svg">
<path d="M10 20C8.61667 20 7.31667 19.7375 6.1 19.2125C4.88333 18.6875 3.825 17.975 2.925 17.075C2.025 16.175 1.3125 15.1167 0.7875 13.9C0.2625 12.6833 0 11.3833 0 10C0 8.61667 0.2625 7.31667 0.7875 6.1C1.3125 4.88333 2.025 3.825 2.925 2.925C3.825 2.025 4.88333 1.3125 6.1 0.7875C7.31667 0.2625 8.61667 0 10 0C11.3833 0 12.6833 0.2625 13.9 0.7875C15.1167 1.3125 16.175 2.025 17.075 2.925C17.975 3.825 18.6875 4.88333 19.2125 6.1C19.7375 7.31667 20 8.61667 20 10C20 11.3833 19.7375 12.6833 19.2125 13.9C18.6875 15.1167 17.975 16.175 17.075 17.075C16.175 17.975 15.1167 18.6875 13.9 19.2125C12.6833 19.7375 11.3833 20 10 20ZM9 17.95V16C8.45 16 7.97917 15.8042 7.5875 15.4125C7.19583 15.0208 7 14.55 7 14V13L2.2 8.2C2.15 8.5 2.10417 8.8 2.0625 9.1C2.02083 9.4 2 9.7 2 10C2 12.0167 2.6625 13.7833 3.9875 15.3C5.3125 16.8167 6.98333 17.7 9 17.95ZM15.9 15.4C16.5833 14.65 17.1042 13.8125 17.4625 12.8875C17.8208 11.9625 18 11 18 10C18 8.36667 17.5458 6.875 16.6375 5.525C15.7292 4.175 14.5167 3.2 13 2.6V3C13 3.55 12.8042 4.02083 12.4125 4.4125C12.0208 4.80417 11.55 5 11 5H9V7C9 7.28333 8.90417 7.52083 8.7125 7.7125C8.52083 7.90417 8.28333 8 8 8H6V10H12C12.2833 10 12.5208 10.0958 12.7125 10.2875C12.9042 10.4792 13 10.7167 13 11V14H14C14.4333 14 14.825 14.1292 15.175 14.3875C15.525 14.6458 15.7667 14.9833 15.9 15.4Z" fill="#94A3B8"/>
<path d="M59 20C58.1667 20 57.4583 19.7083 56.875 19.125C56.2917 18.5417 56 17.8333 56 17C56 16.9 56.025 16.6667 56.075 16.3L49.05 12.2C48.7833 12.45 48.475 12.6458 48.125 12.7875C47.775 12.9292 47.4 13 47 13C46.1667 13 45.4583 12.7083 44.875 12.125C44.2917 11.5417 44 10.8333 44 10C44 9.16667 44.2917 8.45833 44.875 7.875C45.4583 7.29167 46.1667 7 47 7C47.4 7 47.775 7.07083 48.125 7.2125C48.475 7.35417 48.7833 7.55 49.05 7.8L56.075 3.7C56.0417 3.58333 56.0208 3.47083 56.0125 3.3625C56.0042 3.25417 56 3.13333 56 3C56 2.16667 56.2917 1.45833 56.875 0.875C57.4583 0.291667 58.1667 0 59 0C59.8333 0 60.5417 0.291667 61.125 0.875C61.7083 1.45833 62 2.16667 62 3C62 3.83333 61.7083 4.54167 61.125 5.125C60.5417 5.70833 59.8333 6 59 6C58.6 6 58.225 5.92917 57.875 5.7875C57.525 5.64583 57.2167 5.45 56.95 5.2L49.925 9.3C49.9583 9.41667 49.9792 9.52917 49.9875 9.6375C49.9958 9.74583 50 9.86667 50 10C50 10.1333 49.9958 10.2542 49.9875 10.3625C49.9792 10.4708 49.9583 10.5833 49.925 10.7L56.95 14.8C57.2167 14.55 57.525 14.3542 57.875 14.2125C58.225 14.0708 58.6 14 59 14C59.8333 14 60.5417 14.2917 61.125 14.875C61.7083 15.4583 62 16.1667 62 17C62 17.8333 61.7083 18.5417 61.125 19.125C60.5417 19.7083 59.8333 20 59 20ZM59 18C59.2833 18 59.5208 17.9042 59.7125 17.7125C59.9042 17.5208 60 17.2833 60 17C60 16.7167 59.9042 16.4792 59.7125 16.2875C59.5208 16.0958 59.2833 16 59 16C58.7167 16 58.4792 16.0958 58.2875 16.2875C58.0958 16.4792 58 16.7167 58 17C58 17.2833 58.0958 17.5208 58.2875 17.7125C58.4792 17.9042 58.7167 18 59 18ZM47 11C47.2833 11 47.5208 10.9042 47.7125 10.7125C47.9042 10.5208 48 10.2833 48 10C48 9.71667 47.9042 9.47917 47.7125 9.2875C47.5208 9.09583 47.2833 9 47 9C46.7167 9 46.4792 9.09583 46.2875 9.2875C46.0958 9.47917 46 9.71667 46 10C46 10.2833 46.0958 10.5208 46.2875 10.7125C46.4792 10.9042 46.7167 11 47 11ZM59 4C59.2833 4 59.5208 3.90417 59.7125 3.7125C59.9042 3.52083 60 3.28333 60 3C60 2.71667 59.9042 2.47917 59.7125 2.2875C59.5208 2.09583 59.2833 2 59 2C58.7167 2 58.4792 2.09583 58.2875 2.2875C58.0958 2.47917 58 2.71667 58 3C58 3.28333 58.0958 3.52083 58.2875 3.7125C58.4792 3.90417 58.7167 4 59 4Z" fill="#94A3B8"/>
</svg>
