<svg width="472" height="164" viewBox="0 0 472 164" fill="none" xmlns="http://www.w3.org/2000/svg">
<g filter="url(#filter0_dd_18_178)">
<g clip-path="url(#clip0_18_178)">
<rect x="12" y="2" width="448" height="140" rx="12" fill="#0A2837"/>
<path d="M402.944 147.111L405.024 137.33L444.149 145.646L451.53 110.922C453.557 101.385 451.955 92.5891 446.724 84.5337C441.493 76.4784 434.109 71.4372 424.572 69.41C415.035 67.3829 406.239 68.9849 398.184 74.2161C390.128 79.4473 385.087 86.8314 383.06 96.3683L376.719 126.202L371.828 125.162C369.138 124.591 367.039 123.143 365.531 120.821C364.022 118.498 363.554 115.992 364.126 113.302L366.205 103.52C366.569 101.808 367.339 100.29 368.515 98.9635C369.691 97.6374 371.149 96.6907 372.889 96.1232L374.633 89.721C376.463 84.3167 379.165 79.5236 382.737 75.3417C386.31 71.1597 390.404 67.7277 395.021 65.0457C399.638 62.3637 404.661 60.5773 410.09 59.6865C415.519 58.7958 421.004 58.9395 426.547 60.1176C432.09 61.2958 437.14 63.3915 441.696 66.4047C446.253 69.4178 450.119 73.0724 453.295 77.3683C456.471 81.6642 458.82 86.4446 460.342 91.7094C461.864 96.9743 462.403 102.456 461.959 108.155L460.974 114.591C462.367 115.654 463.335 117.01 463.879 118.659C464.423 120.308 464.522 121.948 464.175 123.578L461.784 134.826C461.438 136.457 460.681 137.914 459.513 139.2C458.345 140.485 456.909 141.33 455.204 141.734L453.931 147.726C453.359 150.415 451.912 152.515 449.589 154.023C447.267 155.531 444.76 156 442.07 155.428L402.944 147.111ZM400.44 110.797C399.054 110.503 397.992 109.787 397.254 108.65C396.516 107.514 396.294 106.253 396.589 104.867C396.883 103.481 397.599 102.419 398.735 101.681C399.872 100.943 401.133 100.721 402.519 101.016C403.905 101.31 404.967 102.026 405.705 103.162C406.443 104.299 406.665 105.56 406.37 106.946C406.076 108.332 405.36 109.394 404.223 110.132C403.087 110.87 401.826 111.092 400.44 110.797ZM429.784 117.034C428.399 116.74 427.337 116.024 426.599 114.888C425.86 113.751 425.639 112.49 425.933 111.104C426.228 109.718 426.943 108.657 428.08 107.918C429.217 107.18 430.478 106.958 431.863 107.253C433.249 107.548 434.311 108.263 435.049 109.4C435.787 110.536 436.009 111.798 435.715 113.183C435.42 114.569 434.704 115.631 433.568 116.369C432.431 117.107 431.17 117.329 429.784 117.034ZM387.501 100.124C388.767 91.3622 392.952 84.499 400.056 79.5342C407.161 74.5694 415.033 73.0053 423.673 74.8418C430.928 76.3839 436.817 80.0423 441.34 85.8173C445.863 91.5922 447.933 98.1875 447.549 105.603C440.149 103.945 433.747 100.497 428.343 95.2589C422.939 90.0208 419.276 83.7046 417.355 76.3103C414.664 82.554 410.679 87.777 405.398 91.9793C400.117 96.1815 394.152 98.8963 387.501 100.124Z" fill="white" fill-opacity="0.1"/>
<path d="M42.057 47.27C41.109 47.27 40.254 47.105 39.492 46.775C38.736 46.445 38.112 45.974 37.62 45.362C37.134 44.744 36.825 44.012 36.693 43.166L38.943 42.824C39.135 43.592 39.528 44.186 40.122 44.606C40.722 45.026 41.412 45.236 42.192 45.236C42.654 45.236 43.089 45.164 43.497 45.02C43.905 44.876 44.235 44.666 44.487 44.39C44.745 44.114 44.874 43.775 44.874 43.373C44.874 43.193 44.844 43.028 44.784 42.878C44.724 42.722 44.634 42.584 44.514 42.464C44.4 42.344 44.25 42.236 44.064 42.14C43.884 42.038 43.674 41.951 43.434 41.879L40.086 40.889C39.798 40.805 39.486 40.694 39.15 40.556C38.82 40.412 38.505 40.217 38.205 39.971C37.911 39.719 37.668 39.401 37.476 39.017C37.29 38.627 37.197 38.147 37.197 37.577C37.197 36.743 37.407 36.044 37.827 35.48C38.253 34.91 38.823 34.484 39.537 34.202C40.257 33.92 41.055 33.782 41.931 33.788C42.819 33.794 43.611 33.947 44.307 34.247C45.003 34.541 45.585 34.97 46.053 35.534C46.521 36.098 46.851 36.779 47.043 37.577L44.712 37.982C44.616 37.526 44.43 37.139 44.154 36.821C43.884 36.497 43.551 36.251 43.155 36.083C42.765 35.915 42.348 35.825 41.904 35.813C41.472 35.807 41.07 35.873 40.698 36.011C40.332 36.143 40.035 36.335 39.807 36.587C39.585 36.839 39.474 37.133 39.474 37.469C39.474 37.787 39.57 38.048 39.762 38.252C39.954 38.45 40.191 38.609 40.473 38.729C40.761 38.843 41.052 38.939 41.346 39.017L43.668 39.665C43.986 39.749 44.343 39.863 44.739 40.007C45.135 40.151 45.516 40.352 45.882 40.61C46.248 40.868 46.548 41.207 46.782 41.627C47.022 42.047 47.142 42.581 47.142 43.229C47.142 43.901 47.001 44.492 46.719 45.002C46.443 45.506 46.068 45.926 45.594 46.262C45.12 46.598 44.577 46.85 43.965 47.018C43.359 47.186 42.723 47.27 42.057 47.27ZM54.7871 47C54.1451 47.12 53.5151 47.171 52.8971 47.153C52.2851 47.141 51.7361 47.03 51.2501 46.82C50.7641 46.604 50.3951 46.265 50.1431 45.803C49.9211 45.383 49.8041 44.954 49.7921 44.516C49.7801 44.078 49.7741 43.583 49.7741 43.031V34.58H51.9341V42.905C51.9341 43.295 51.9371 43.637 51.9431 43.931C51.9551 44.225 52.0181 44.465 52.1321 44.651C52.3481 45.011 52.6931 45.212 53.1671 45.254C53.6411 45.296 54.1811 45.272 54.7871 45.182V47ZM48.0101 38.981V37.28H54.7871V38.981H48.0101ZM57.0572 35.804V33.815H59.2262V35.804H57.0572ZM57.0572 47V37.28H59.2262V47H57.0572ZM62.1021 47V33.77H64.2711V47H62.1021ZM67.147 47V33.77H69.316V47H67.147ZM82.3385 47V42.32C82.3385 42.014 82.3175 41.675 82.2755 41.303C82.2335 40.931 82.1345 40.574 81.9785 40.232C81.8285 39.884 81.6005 39.599 81.2945 39.377C80.9945 39.155 80.5865 39.044 80.0705 39.044C79.7945 39.044 79.5215 39.089 79.2515 39.179C78.9815 39.269 78.7355 39.425 78.5135 39.647C78.2975 39.863 78.1235 40.163 77.9915 40.547C77.8595 40.925 77.7935 41.411 77.7935 42.005L76.5065 41.456C76.5065 40.628 76.6655 39.878 76.9835 39.206C77.3075 38.534 77.7815 38 78.4055 37.604C79.0295 37.202 79.7975 37.001 80.7095 37.001C81.4295 37.001 82.0235 37.121 82.4915 37.361C82.9595 37.601 83.3315 37.907 83.6075 38.279C83.8835 38.651 84.0875 39.047 84.2195 39.467C84.3515 39.887 84.4355 40.286 84.4715 40.664C84.5135 41.036 84.5345 41.339 84.5345 41.573V47H82.3385ZM75.5975 47V34.04H77.5325V40.862H77.7935V47H75.5975ZM89.601 47.27C88.899 47.27 88.305 47.138 87.819 46.874C87.333 46.604 86.964 46.247 86.712 45.803C86.466 45.359 86.343 44.87 86.343 44.336C86.343 43.868 86.421 43.448 86.577 43.076C86.733 42.698 86.973 42.374 87.297 42.104C87.621 41.828 88.041 41.603 88.557 41.429C88.947 41.303 89.403 41.189 89.925 41.087C90.453 40.985 91.023 40.892 91.635 40.808C92.253 40.718 92.898 40.622 93.57 40.52L92.796 40.961C92.802 40.289 92.652 39.794 92.346 39.476C92.04 39.158 91.524 38.999 90.798 38.999C90.36 38.999 89.937 39.101 89.529 39.305C89.121 39.509 88.836 39.86 88.674 40.358L86.694 39.737C86.934 38.915 87.39 38.255 88.062 37.757C88.74 37.259 89.652 37.01 90.798 37.01C91.662 37.01 92.421 37.151 93.075 37.433C93.735 37.715 94.224 38.177 94.542 38.819C94.716 39.161 94.821 39.512 94.857 39.872C94.893 40.226 94.911 40.613 94.911 41.033V47H93.012V44.894L93.327 45.236C92.889 45.938 92.376 46.454 91.788 46.784C91.206 47.108 90.477 47.27 89.601 47.27ZM90.033 45.542C90.525 45.542 90.945 45.455 91.293 45.281C91.641 45.107 91.917 44.894 92.121 44.642C92.331 44.39 92.472 44.153 92.544 43.931C92.658 43.655 92.721 43.34 92.733 42.986C92.751 42.626 92.76 42.335 92.76 42.113L93.426 42.311C92.772 42.413 92.211 42.503 91.743 42.581C91.275 42.659 90.873 42.734 90.537 42.806C90.201 42.872 89.904 42.947 89.646 43.031C89.394 43.121 89.181 43.226 89.007 43.346C88.833 43.466 88.698 43.604 88.602 43.76C88.512 43.916 88.467 44.099 88.467 44.309C88.467 44.549 88.527 44.762 88.647 44.948C88.767 45.128 88.941 45.272 89.169 45.38C89.403 45.488 89.691 45.542 90.033 45.542ZM99.5306 47L96.0026 37.28H98.1716L100.62 44.327L103.059 37.28H105.237L101.709 47H99.5306ZM110.919 47.27C109.935 47.27 109.071 47.057 108.327 46.631C107.583 46.205 107.001 45.614 106.581 44.858C106.167 44.102 105.96 43.232 105.96 42.248C105.96 41.186 106.164 40.265 106.572 39.485C106.98 38.699 107.547 38.09 108.273 37.658C108.999 37.226 109.839 37.01 110.793 37.01C111.801 37.01 112.656 37.247 113.358 37.721C114.066 38.189 114.591 38.852 114.933 39.71C115.275 40.568 115.404 41.579 115.32 42.743H113.169V41.951C113.163 40.895 112.977 40.124 112.611 39.638C112.245 39.152 111.669 38.909 110.883 38.909C109.995 38.909 109.335 39.185 108.903 39.737C108.471 40.283 108.255 41.084 108.255 42.14C108.255 43.124 108.471 43.886 108.903 44.426C109.335 44.966 109.965 45.236 110.793 45.236C111.327 45.236 111.786 45.119 112.17 44.885C112.56 44.645 112.86 44.3 113.07 43.85L115.212 44.498C114.84 45.374 114.264 46.055 113.484 46.541C112.71 47.027 111.855 47.27 110.919 47.27ZM107.571 42.743V41.105H114.258V42.743H107.571ZM124.829 47.27C123.935 47.27 123.155 47.045 122.489 46.595C121.823 46.145 121.307 45.533 120.941 44.759C120.575 43.985 120.392 43.112 120.392 42.14C120.392 41.156 120.575 40.28 120.941 39.512C121.313 38.738 121.838 38.129 122.516 37.685C123.194 37.235 123.992 37.01 124.91 37.01C125.834 37.01 126.608 37.235 127.232 37.685C127.862 38.129 128.339 38.738 128.663 39.512C128.987 40.286 129.149 41.162 129.149 42.14C129.149 43.106 128.987 43.979 128.663 44.759C128.339 45.533 127.856 46.145 127.214 46.595C126.572 47.045 125.777 47.27 124.829 47.27ZM125.162 45.326C125.744 45.326 126.212 45.194 126.566 44.93C126.926 44.66 127.187 44.285 127.349 43.805C127.517 43.325 127.601 42.77 127.601 42.14C127.601 41.504 127.517 40.949 127.349 40.475C127.187 39.995 126.932 39.623 126.584 39.359C126.236 39.089 125.786 38.954 125.234 38.954C124.652 38.954 124.172 39.098 123.794 39.386C123.416 39.668 123.137 40.052 122.957 40.538C122.777 41.018 122.687 41.552 122.687 42.14C122.687 42.734 122.774 43.274 122.948 43.76C123.128 44.24 123.401 44.621 123.767 44.903C124.133 45.185 124.598 45.326 125.162 45.326ZM127.331 51.32V44.102H127.601V37.28H129.518V51.32H127.331ZM135.686 47.279C134.966 47.279 134.372 47.159 133.904 46.919C133.436 46.679 133.064 46.373 132.788 46.001C132.512 45.629 132.308 45.233 132.176 44.813C132.044 44.393 131.957 43.997 131.915 43.625C131.879 43.247 131.861 42.941 131.861 42.707V37.28H134.057V41.96C134.057 42.26 134.078 42.599 134.12 42.977C134.162 43.349 134.258 43.709 134.408 44.057C134.564 44.399 134.792 44.681 135.092 44.903C135.398 45.125 135.809 45.236 136.325 45.236C136.601 45.236 136.874 45.191 137.144 45.101C137.414 45.011 137.657 44.858 137.873 44.642C138.095 44.42 138.272 44.117 138.404 43.733C138.536 43.349 138.602 42.863 138.602 42.275L139.889 42.824C139.889 43.652 139.727 44.402 139.403 45.074C139.085 45.746 138.614 46.283 137.99 46.685C137.366 47.081 136.598 47.279 135.686 47.279ZM138.863 47V43.985H138.602V37.28H140.78V47H138.863ZM147.728 47.27C146.744 47.27 145.88 47.057 145.136 46.631C144.392 46.205 143.81 45.614 143.39 44.858C142.976 44.102 142.769 43.232 142.769 42.248C142.769 41.186 142.973 40.265 143.381 39.485C143.789 38.699 144.356 38.09 145.082 37.658C145.808 37.226 146.648 37.01 147.602 37.01C148.61 37.01 149.465 37.247 150.167 37.721C150.875 38.189 151.4 38.852 151.742 39.71C152.084 40.568 152.213 41.579 152.129 42.743H149.978V41.951C149.972 40.895 149.786 40.124 149.42 39.638C149.054 39.152 148.478 38.909 147.692 38.909C146.804 38.909 146.144 39.185 145.712 39.737C145.28 40.283 145.064 41.084 145.064 42.14C145.064 43.124 145.28 43.886 145.712 44.426C146.144 44.966 146.774 45.236 147.602 45.236C148.136 45.236 148.595 45.119 148.979 44.885C149.369 44.645 149.669 44.3 149.879 43.85L152.021 44.498C151.649 45.374 151.073 46.055 150.293 46.541C149.519 47.027 148.664 47.27 147.728 47.27ZM144.38 42.743V41.105H151.067V42.743H144.38ZM157.89 47.27C156.69 47.27 155.715 47 154.965 46.46C154.215 45.92 153.759 45.161 153.597 44.183L155.811 43.841C155.925 44.321 156.177 44.699 156.567 44.975C156.957 45.251 157.449 45.389 158.043 45.389C158.565 45.389 158.967 45.287 159.249 45.083C159.537 44.873 159.681 44.588 159.681 44.228C159.681 44.006 159.627 43.829 159.519 43.697C159.417 43.559 159.189 43.427 158.835 43.301C158.481 43.175 157.938 43.016 157.206 42.824C156.39 42.608 155.742 42.377 155.262 42.131C154.782 41.879 154.437 41.582 154.227 41.24C154.017 40.898 153.912 40.484 153.912 39.998C153.912 39.392 154.071 38.864 154.389 38.414C154.707 37.964 155.151 37.619 155.721 37.379C156.291 37.133 156.963 37.01 157.737 37.01C158.493 37.01 159.162 37.127 159.744 37.361C160.332 37.595 160.806 37.928 161.166 38.36C161.526 38.792 161.748 39.299 161.832 39.881L159.618 40.277C159.564 39.863 159.375 39.536 159.051 39.296C158.733 39.056 158.307 38.921 157.773 38.891C157.263 38.861 156.852 38.939 156.54 39.125C156.228 39.305 156.072 39.56 156.072 39.89C156.072 40.076 156.135 40.235 156.261 40.367C156.387 40.499 156.639 40.631 157.017 40.763C157.401 40.895 157.971 41.057 158.727 41.249C159.501 41.447 160.119 41.675 160.581 41.933C161.049 42.185 161.385 42.488 161.589 42.842C161.799 43.196 161.904 43.625 161.904 44.129C161.904 45.107 161.547 45.875 160.833 46.433C160.125 46.991 159.144 47.27 157.89 47.27ZM169.572 47C168.93 47.12 168.3 47.171 167.682 47.153C167.07 47.141 166.521 47.03 166.035 46.82C165.549 46.604 165.18 46.265 164.928 45.803C164.706 45.383 164.589 44.954 164.577 44.516C164.565 44.078 164.559 43.583 164.559 43.031V34.58H166.719V42.905C166.719 43.295 166.722 43.637 166.728 43.931C166.74 44.225 166.803 44.465 166.917 44.651C167.133 45.011 167.478 45.212 167.952 45.254C168.426 45.296 168.966 45.272 169.572 45.182V47ZM162.795 38.981V37.28H169.572V38.981H162.795ZM171.842 35.804V33.815H174.011V35.804H171.842ZM171.842 47V37.28H174.011V47H171.842ZM181 47.27C180.028 47.27 179.179 47.051 178.453 46.613C177.727 46.175 177.163 45.572 176.761 44.804C176.365 44.03 176.167 43.142 176.167 42.14C176.167 41.12 176.371 40.226 176.779 39.458C177.187 38.69 177.754 38.09 178.48 37.658C179.206 37.226 180.046 37.01 181 37.01C181.978 37.01 182.83 37.229 183.556 37.667C184.282 38.105 184.846 38.711 185.248 39.485C185.65 40.253 185.851 41.138 185.851 42.14C185.851 43.148 185.647 44.039 185.239 44.813C184.837 45.581 184.273 46.184 183.547 46.622C182.821 47.054 181.972 47.27 181 47.27ZM181 45.236C181.864 45.236 182.506 44.948 182.926 44.372C183.346 43.796 183.556 43.052 183.556 42.14C183.556 41.198 183.343 40.448 182.917 39.89C182.491 39.326 181.852 39.044 181 39.044C180.418 39.044 179.938 39.176 179.56 39.44C179.188 39.698 178.912 40.061 178.732 40.529C178.552 40.991 178.462 41.528 178.462 42.14C178.462 43.082 178.675 43.835 179.101 44.399C179.533 44.957 180.166 45.236 181 45.236ZM194.557 47V42.32C194.557 42.014 194.536 41.675 194.494 41.303C194.452 40.931 194.353 40.574 194.197 40.232C194.047 39.884 193.819 39.599 193.513 39.377C193.213 39.155 192.805 39.044 192.289 39.044C192.013 39.044 191.74 39.089 191.47 39.179C191.2 39.269 190.954 39.425 190.732 39.647C190.516 39.863 190.342 40.163 190.21 40.547C190.078 40.925 190.012 41.411 190.012 42.005L188.725 41.456C188.725 40.628 188.884 39.878 189.202 39.206C189.526 38.534 190 38 190.624 37.604C191.248 37.202 192.016 37.001 192.928 37.001C193.648 37.001 194.242 37.121 194.71 37.361C195.178 37.601 195.55 37.907 195.826 38.279C196.102 38.651 196.306 39.047 196.438 39.467C196.57 39.887 196.654 40.286 196.69 40.664C196.732 41.036 196.753 41.339 196.753 41.573V47H194.557ZM187.816 47V37.28H189.751V40.295H190.012V47H187.816ZM202.855 47.27C201.655 47.27 200.68 47 199.93 46.46C199.18 45.92 198.724 45.161 198.562 44.183L200.776 43.841C200.89 44.321 201.142 44.699 201.532 44.975C201.922 45.251 202.414 45.389 203.008 45.389C203.53 45.389 203.932 45.287 204.214 45.083C204.502 44.873 204.646 44.588 204.646 44.228C204.646 44.006 204.592 43.829 204.484 43.697C204.382 43.559 204.154 43.427 203.8 43.301C203.446 43.175 202.903 43.016 202.171 42.824C201.355 42.608 200.707 42.377 200.227 42.131C199.747 41.879 199.402 41.582 199.192 41.24C198.982 40.898 198.877 40.484 198.877 39.998C198.877 39.392 199.036 38.864 199.354 38.414C199.672 37.964 200.116 37.619 200.686 37.379C201.256 37.133 201.928 37.01 202.702 37.01C203.458 37.01 204.127 37.127 204.709 37.361C205.297 37.595 205.771 37.928 206.131 38.36C206.491 38.792 206.713 39.299 206.797 39.881L204.583 40.277C204.529 39.863 204.34 39.536 204.016 39.296C203.698 39.056 203.272 38.921 202.738 38.891C202.228 38.861 201.817 38.939 201.505 39.125C201.193 39.305 201.037 39.56 201.037 39.89C201.037 40.076 201.1 40.235 201.226 40.367C201.352 40.499 201.604 40.631 201.982 40.763C202.366 40.895 202.936 41.057 203.692 41.249C204.466 41.447 205.084 41.675 205.546 41.933C206.014 42.185 206.35 42.488 206.554 42.842C206.764 43.196 206.869 43.625 206.869 44.129C206.869 45.107 206.512 45.875 205.798 46.433C205.09 46.991 204.109 47.27 202.855 47.27ZM211.189 43.481C211.189 43.067 211.228 42.668 211.306 42.284C211.39 41.894 211.525 41.534 211.711 41.204C211.873 40.886 212.053 40.634 212.251 40.448C212.449 40.256 212.671 40.067 212.917 39.881C213.163 39.689 213.436 39.434 213.736 39.116C213.982 38.846 214.144 38.579 214.222 38.315C214.3 38.045 214.339 37.757 214.339 37.451C214.339 37.253 214.318 37.067 214.276 36.893C214.234 36.719 214.159 36.569 214.051 36.443C213.883 36.221 213.667 36.065 213.403 35.975C213.139 35.879 212.857 35.831 212.557 35.831C212.311 35.831 212.074 35.864 211.846 35.93C211.624 35.99 211.435 36.086 211.279 36.218C211.099 36.362 210.967 36.539 210.883 36.749C210.799 36.959 210.76 37.19 210.766 37.442H208.48C208.54 36.842 208.702 36.287 208.966 35.777C209.236 35.261 209.59 34.85 210.028 34.544C210.37 34.292 210.754 34.103 211.18 33.977C211.612 33.851 212.044 33.788 212.476 33.788C213.136 33.788 213.757 33.89 214.339 34.094C214.927 34.298 215.416 34.634 215.806 35.102C216.076 35.408 216.28 35.762 216.418 36.164C216.562 36.566 216.634 36.974 216.634 37.388C216.634 38.006 216.499 38.57 216.229 39.08C215.965 39.59 215.629 40.061 215.221 40.493C215.029 40.697 214.846 40.877 214.672 41.033C214.498 41.189 214.336 41.342 214.186 41.492C214.042 41.636 213.922 41.789 213.826 41.951C213.658 42.233 213.559 42.473 213.529 42.671C213.499 42.863 213.484 43.133 213.484 43.481H211.189ZM211.207 47V44.615H213.484V47H211.207Z" fill="white"/>
<path d="M41.061 77.21C40.0577 77.21 39.2107 76.9883 38.52 76.545C37.8293 76.097 37.3067 75.4787 36.952 74.69C36.5973 73.9013 36.42 72.9913 36.42 71.96C36.42 70.9287 36.5973 70.0187 36.952 69.23C37.3067 68.4413 37.8293 67.8253 38.52 67.382C39.2107 66.934 40.0577 66.71 41.061 66.71C42.069 66.71 42.916 66.934 43.602 67.382C44.2927 67.8253 44.8153 68.4413 45.17 69.23C45.5293 70.0187 45.709 70.9287 45.709 71.96C45.709 72.9913 45.5293 73.9013 45.17 74.69C44.8153 75.4787 44.2927 76.097 43.602 76.545C42.916 76.9883 42.069 77.21 41.061 77.21ZM41.061 76.223C41.8497 76.223 42.5077 76.0433 43.035 75.684C43.5623 75.3247 43.9567 74.8253 44.218 74.186C44.484 73.542 44.617 72.8 44.617 71.96C44.617 71.12 44.484 70.3803 44.218 69.741C43.9567 69.1017 43.5623 68.6023 43.035 68.243C42.5077 67.8837 41.8497 67.7017 41.061 67.697C40.2723 67.697 39.6167 67.8767 39.094 68.236C38.5713 68.5953 38.177 69.097 37.911 69.741C37.6497 70.3803 37.5167 71.12 37.512 71.96C37.5073 72.8 37.6357 73.5397 37.897 74.179C38.163 74.8137 38.5597 75.313 39.087 75.677C39.6143 76.0363 40.2723 76.2183 41.061 76.223ZM50.0019 77.189C49.5492 77.189 49.1525 77.119 48.8119 76.979C48.4759 76.839 48.1889 76.65 47.9509 76.412C47.7175 76.174 47.5285 75.9033 47.3839 75.6C47.2392 75.292 47.1342 74.9677 47.0689 74.627C47.0035 74.2817 46.9709 73.9387 46.9709 73.598V69.44H48.0069V73.297C48.0069 73.7123 48.0465 74.0973 48.1259 74.452C48.2052 74.8067 48.3312 75.117 48.5039 75.383C48.6812 75.6443 48.9075 75.8473 49.1829 75.992C49.4629 76.1367 49.8012 76.209 50.1979 76.209C50.5619 76.209 50.8815 76.146 51.1569 76.02C51.4369 75.894 51.6702 75.7143 51.8569 75.481C52.0482 75.243 52.1929 74.956 52.2909 74.62C52.3889 74.2793 52.4379 73.8967 52.4379 73.472L53.1659 73.633C53.1659 74.4077 53.0305 75.0587 52.7599 75.586C52.4892 76.1133 52.1159 76.5123 51.6399 76.783C51.1639 77.0537 50.6179 77.189 50.0019 77.189ZM52.5429 77V75.138H52.4379V69.44H53.4669V77H52.5429ZM55.4234 77V69.44H56.3474V71.26L56.1654 71.022C56.2494 70.798 56.359 70.5927 56.4944 70.406C56.6297 70.2147 56.7767 70.0583 56.9354 69.937C57.1314 69.7643 57.36 69.6337 57.6214 69.545C57.8827 69.4517 58.1464 69.398 58.4124 69.384C58.6784 69.3653 58.921 69.384 59.1404 69.44V70.406C58.865 70.336 58.564 70.3197 58.2374 70.357C57.9107 70.3943 57.6097 70.525 57.3344 70.749C57.0824 70.945 56.8934 71.1807 56.7674 71.456C56.6414 71.7267 56.5574 72.016 56.5154 72.324C56.4734 72.6273 56.4524 72.9283 56.4524 73.227V77H55.4234ZM66.092 77.203C65.2053 77.203 64.475 77.0117 63.901 76.629C63.3317 76.2463 62.9817 75.7143 62.851 75.033L63.901 74.858C64.013 75.2873 64.2673 75.6303 64.664 75.887C65.0653 76.139 65.56 76.265 66.148 76.265C66.722 76.265 67.1747 76.146 67.506 75.908C67.8373 75.6653 68.003 75.3363 68.003 74.921C68.003 74.6877 67.9493 74.4987 67.842 74.354C67.7393 74.2047 67.527 74.067 67.205 73.941C66.883 73.815 66.4023 73.6657 65.763 73.493C65.077 73.3063 64.5403 73.1197 64.153 72.933C63.7657 72.7463 63.4903 72.5317 63.327 72.289C63.1637 72.0417 63.082 71.7407 63.082 71.386C63.082 70.9567 63.2033 70.581 63.446 70.259C63.6887 69.9323 64.0247 69.6803 64.454 69.503C64.8833 69.321 65.3827 69.23 65.952 69.23C66.5213 69.23 67.03 69.3233 67.478 69.51C67.9307 69.692 68.2947 69.9487 68.57 70.28C68.8453 70.6113 69.0087 70.9963 69.06 71.435L68.01 71.624C67.94 71.1807 67.7183 70.8307 67.345 70.574C66.9763 70.3127 66.5073 70.1773 65.938 70.168C65.4013 70.154 64.965 70.2567 64.629 70.476C64.293 70.6907 64.125 70.9777 64.125 71.337C64.125 71.5377 64.1857 71.7103 64.307 71.855C64.4283 71.995 64.6477 72.128 64.965 72.254C65.287 72.38 65.7443 72.5177 66.337 72.667C67.0323 72.8443 67.5783 73.031 67.975 73.227C68.3717 73.423 68.654 73.654 68.822 73.92C68.99 74.186 69.074 74.515 69.074 74.907C69.074 75.621 68.808 76.1833 68.276 76.594C67.7487 77 67.0207 77.203 66.092 77.203ZM73.5175 77.189C73.0648 77.189 72.6682 77.119 72.3275 76.979C71.9915 76.839 71.7045 76.65 71.4665 76.412C71.2332 76.174 71.0442 75.9033 70.8995 75.6C70.7548 75.292 70.6498 74.9677 70.5845 74.627C70.5192 74.2817 70.4865 73.9387 70.4865 73.598V69.44H71.5225V73.297C71.5225 73.7123 71.5622 74.0973 71.6415 74.452C71.7208 74.8067 71.8468 75.117 72.0195 75.383C72.1968 75.6443 72.4232 75.8473 72.6985 75.992C72.9785 76.1367 73.3168 76.209 73.7135 76.209C74.0775 76.209 74.3972 76.146 74.6725 76.02C74.9525 75.894 75.1858 75.7143 75.3725 75.481C75.5638 75.243 75.7085 74.956 75.8065 74.62C75.9045 74.2793 75.9535 73.8967 75.9535 73.472L76.6815 73.633C76.6815 74.4077 76.5462 75.0587 76.2755 75.586C76.0048 76.1133 75.6315 76.5123 75.1555 76.783C74.6795 77.0537 74.1335 77.189 73.5175 77.189ZM76.0585 77V75.138H75.9535V69.44H76.9825V77H76.0585ZM82.334 77.21C81.6387 77.21 81.0507 77.035 80.57 76.685C80.0893 76.3303 79.7253 75.852 79.478 75.25C79.2307 74.6433 79.107 73.9643 79.107 73.213C79.107 72.4477 79.2307 71.7663 79.478 71.169C79.73 70.567 80.0987 70.0933 80.584 69.748C81.0693 69.4027 81.6667 69.23 82.376 69.23C83.0667 69.23 83.6593 69.405 84.154 69.755C84.6487 70.105 85.0267 70.581 85.288 71.183C85.554 71.785 85.687 72.4617 85.687 73.213C85.687 73.969 85.554 74.648 85.288 75.25C85.022 75.852 84.6393 76.3303 84.14 76.685C83.6407 77.035 83.0387 77.21 82.334 77.21ZM78.932 80.36V69.44H79.856V75.131H79.968V80.36H78.932ZM82.229 76.251C82.7563 76.251 83.195 76.118 83.545 75.852C83.895 75.586 84.1563 75.2243 84.329 74.767C84.5063 74.305 84.595 73.787 84.595 73.213C84.595 72.6437 84.5087 72.1303 84.336 71.673C84.1633 71.2157 83.8997 70.854 83.545 70.588C83.195 70.322 82.7493 70.189 82.208 70.189C81.6807 70.189 81.242 70.3173 80.892 70.574C80.5467 70.8307 80.2877 71.1877 80.115 71.645C79.9423 72.0977 79.856 72.6203 79.856 73.213C79.856 73.7963 79.9423 74.319 80.115 74.781C80.2877 75.2383 80.549 75.5977 80.899 75.859C81.249 76.1203 81.6923 76.251 82.229 76.251ZM90.6191 77.21C89.9238 77.21 89.3358 77.035 88.8551 76.685C88.3745 76.3303 88.0105 75.852 87.7631 75.25C87.5158 74.6433 87.3921 73.9643 87.3921 73.213C87.3921 72.4477 87.5158 71.7663 87.7631 71.169C88.0151 70.567 88.3838 70.0933 88.8691 69.748C89.3545 69.4027 89.9518 69.23 90.6611 69.23C91.3518 69.23 91.9445 69.405 92.4391 69.755C92.9338 70.105 93.3118 70.581 93.5731 71.183C93.8391 71.785 93.9721 72.4617 93.9721 73.213C93.9721 73.969 93.8391 74.648 93.5731 75.25C93.3071 75.852 92.9245 76.3303 92.4251 76.685C91.9258 77.035 91.3238 77.21 90.6191 77.21ZM87.2171 80.36V69.44H88.1411V75.131H88.2531V80.36H87.2171ZM90.5141 76.251C91.0415 76.251 91.4801 76.118 91.8301 75.852C92.1801 75.586 92.4415 75.2243 92.6141 74.767C92.7915 74.305 92.8801 73.787 92.8801 73.213C92.8801 72.6437 92.7938 72.1303 92.6211 71.673C92.4485 71.2157 92.1848 70.854 91.8301 70.588C91.4801 70.322 91.0345 70.189 90.4931 70.189C89.9658 70.189 89.5271 70.3173 89.1771 70.574C88.8318 70.8307 88.5728 71.1877 88.4001 71.645C88.2275 72.0977 88.1411 72.6203 88.1411 73.213C88.1411 73.7963 88.2275 74.319 88.4001 74.781C88.5728 75.2383 88.8341 75.5977 89.1841 75.859C89.5341 76.1203 89.9775 76.251 90.5141 76.251ZM98.6663 77.21C97.915 77.21 97.2733 77.0397 96.7413 76.699C96.2093 76.3583 95.801 75.887 95.5163 75.285C95.2316 74.683 95.0893 73.9923 95.0893 73.213C95.0893 72.4197 95.234 71.7243 95.5233 71.127C95.8126 70.5297 96.2233 70.0653 96.7553 69.734C97.292 69.398 97.929 69.23 98.6663 69.23C99.4223 69.23 100.066 69.4003 100.598 69.741C101.135 70.077 101.543 70.546 101.823 71.148C102.108 71.7453 102.25 72.4337 102.25 73.213C102.25 74.0063 102.108 74.704 101.823 75.306C101.539 75.9033 101.128 76.37 100.591 76.706C100.055 77.042 99.413 77.21 98.6663 77.21ZM98.6663 76.223C99.5063 76.223 100.132 75.9453 100.542 75.39C100.953 74.83 101.158 74.1043 101.158 73.213C101.158 72.2983 100.951 71.5703 100.535 71.029C100.125 70.4877 99.5016 70.217 98.6663 70.217C98.1016 70.217 97.635 70.3453 97.2663 70.602C96.9023 70.854 96.6293 71.2063 96.4473 71.659C96.27 72.107 96.1813 72.625 96.1813 73.213C96.1813 74.123 96.3913 74.8533 96.8113 75.404C97.2313 75.95 97.8496 76.223 98.6663 76.223ZM103.794 77V69.44H104.718V71.26L104.536 71.022C104.62 70.798 104.73 70.5927 104.865 70.406C105.001 70.2147 105.148 70.0583 105.306 69.937C105.502 69.7643 105.731 69.6337 105.992 69.545C106.254 69.4517 106.517 69.398 106.783 69.384C107.049 69.3653 107.292 69.384 107.511 69.44V70.406C107.236 70.336 106.935 70.3197 106.608 70.357C106.282 70.3943 105.981 70.525 105.705 70.749C105.453 70.945 105.264 71.1807 105.138 71.456C105.012 71.7267 104.928 72.016 104.886 72.324C104.844 72.6273 104.823 72.9283 104.823 73.227V77H103.794ZM112.955 77C112.531 77.0887 112.111 77.1237 111.695 77.105C111.285 77.0863 110.916 76.9977 110.589 76.839C110.267 76.6803 110.022 76.433 109.854 76.097C109.719 75.817 109.644 75.5347 109.63 75.25C109.621 74.9607 109.616 74.6317 109.616 74.263V67.34H110.638V74.221C110.638 74.5383 110.641 74.8043 110.645 75.019C110.655 75.229 110.704 75.4157 110.792 75.579C110.96 75.8917 111.226 76.0783 111.59 76.139C111.959 76.1997 112.414 76.1857 112.955 76.097V77ZM107.999 70.322V69.44H112.955V70.322H107.999ZM121.364 77C120.939 77.0887 120.519 77.1237 120.104 77.105C119.693 77.0863 119.324 76.9977 118.998 76.839C118.676 76.6803 118.431 76.433 118.263 76.097C118.127 75.817 118.053 75.5347 118.039 75.25C118.029 74.9607 118.025 74.6317 118.025 74.263V67.34H119.047V74.221C119.047 74.5383 119.049 74.8043 119.054 75.019C119.063 75.229 119.112 75.4157 119.201 75.579C119.369 75.8917 119.635 76.0783 119.999 76.139C120.367 76.1997 120.822 76.1857 121.364 76.097V77ZM116.408 70.322V69.44H121.364V70.322H116.408ZM125.779 77.21C125.041 77.21 124.402 77.0467 123.861 76.72C123.324 76.3933 122.906 75.9337 122.608 75.341C122.309 74.7483 122.16 74.053 122.16 73.255C122.16 72.429 122.307 71.715 122.601 71.113C122.895 70.511 123.308 70.0467 123.84 69.72C124.376 69.3933 125.009 69.23 125.737 69.23C126.483 69.23 127.12 69.4027 127.648 69.748C128.175 70.0887 128.574 70.5787 128.845 71.218C129.115 71.8573 129.239 72.6203 129.216 73.507H128.166V73.143C128.147 72.163 127.935 71.4233 127.529 70.924C127.127 70.4247 126.539 70.175 125.765 70.175C124.953 70.175 124.33 70.4387 123.896 70.966C123.466 71.4933 123.252 72.2447 123.252 73.22C123.252 74.172 123.466 74.9117 123.896 75.439C124.33 75.9617 124.943 76.223 125.737 76.223C126.278 76.223 126.749 76.0993 127.151 75.852C127.557 75.6 127.876 75.2383 128.11 74.767L129.069 75.138C128.77 75.796 128.329 76.307 127.746 76.671C127.167 77.0303 126.511 77.21 125.779 77.21ZM122.888 73.507V72.646H128.663V73.507H122.888ZM132.795 77.21C132.226 77.21 131.748 77.1073 131.36 76.902C130.978 76.6967 130.691 76.4237 130.499 76.083C130.308 75.7423 130.212 75.3713 130.212 74.97C130.212 74.5593 130.294 74.2093 130.457 73.92C130.625 73.626 130.852 73.3857 131.136 73.199C131.426 73.0123 131.759 72.87 132.137 72.772C132.52 72.6787 132.942 72.597 133.404 72.527C133.871 72.4523 134.326 72.3893 134.769 72.338C135.217 72.282 135.609 72.2283 135.945 72.177L135.581 72.401C135.595 71.6543 135.451 71.1013 135.147 70.742C134.844 70.3827 134.317 70.203 133.565 70.203C133.047 70.203 132.609 70.3197 132.249 70.553C131.895 70.7863 131.645 71.155 131.5 71.659L130.499 71.365C130.672 70.6883 131.02 70.1633 131.542 69.79C132.065 69.4167 132.744 69.23 133.579 69.23C134.27 69.23 134.856 69.3607 135.336 69.622C135.822 69.8787 136.165 70.252 136.365 70.742C136.459 70.9613 136.519 71.2063 136.547 71.477C136.575 71.7477 136.589 72.023 136.589 72.303V77H135.672V75.103L135.938 75.215C135.682 75.8637 135.283 76.3583 134.741 76.699C134.2 77.0397 133.551 77.21 132.795 77.21ZM132.914 76.321C133.395 76.321 133.815 76.2347 134.174 76.062C134.534 75.8893 134.823 75.6537 135.042 75.355C135.262 75.0517 135.404 74.711 135.469 74.333C135.525 74.0903 135.556 73.8243 135.56 73.535C135.565 73.241 135.567 73.0217 135.567 72.877L135.959 73.08C135.609 73.1267 135.229 73.1733 134.818 73.22C134.412 73.2667 134.011 73.3203 133.614 73.381C133.222 73.4417 132.868 73.514 132.55 73.598C132.336 73.6587 132.128 73.745 131.927 73.857C131.727 73.9643 131.561 74.109 131.43 74.291C131.304 74.473 131.241 74.6993 131.241 74.97C131.241 75.1893 131.295 75.4017 131.402 75.607C131.514 75.8123 131.692 75.9827 131.934 76.118C132.182 76.2533 132.508 76.321 132.914 76.321ZM147.428 77L147.435 72.037C147.435 71.4537 147.271 70.9963 146.945 70.665C146.623 70.329 146.212 70.161 145.713 70.161C145.428 70.161 145.15 70.2263 144.88 70.357C144.609 70.4877 144.385 70.6977 144.208 70.987C144.035 71.2763 143.949 71.6543 143.949 72.121L143.34 71.946C143.326 71.4047 143.431 70.931 143.655 70.525C143.883 70.119 144.196 69.804 144.593 69.58C144.994 69.3513 145.447 69.237 145.951 69.237C146.711 69.237 147.32 69.4727 147.778 69.944C148.235 70.4107 148.464 71.043 148.464 71.841L148.457 77H147.428ZM138.405 77V69.44H139.329V71.302H139.441V77H138.405ZM142.927 77L142.934 72.107C142.934 71.505 142.773 71.0313 142.451 70.686C142.133 70.336 141.713 70.161 141.191 70.161C140.668 70.161 140.246 70.3407 139.924 70.7C139.602 71.0547 139.441 71.5283 139.441 72.121L138.825 71.785C138.825 71.2997 138.939 70.8657 139.168 70.483C139.396 70.0957 139.709 69.7923 140.106 69.573C140.502 69.349 140.953 69.237 141.457 69.237C141.937 69.237 142.364 69.3397 142.738 69.545C143.116 69.7503 143.412 70.049 143.627 70.441C143.841 70.833 143.949 71.309 143.949 71.869L143.942 77H142.927ZM153.222 68.005V66.85H154.251V68.005H153.222ZM153.222 77V69.44H154.251V77H153.222ZM159.17 77.203C158.283 77.203 157.553 77.0117 156.979 76.629C156.41 76.2463 156.06 75.7143 155.929 75.033L156.979 74.858C157.091 75.2873 157.345 75.6303 157.742 75.887C158.143 76.139 158.638 76.265 159.226 76.265C159.8 76.265 160.253 76.146 160.584 75.908C160.915 75.6653 161.081 75.3363 161.081 74.921C161.081 74.6877 161.027 74.4987 160.92 74.354C160.817 74.2047 160.605 74.067 160.283 73.941C159.961 73.815 159.48 73.6657 158.841 73.493C158.155 73.3063 157.618 73.1197 157.231 72.933C156.844 72.7463 156.568 72.5317 156.405 72.289C156.242 72.0417 156.16 71.7407 156.16 71.386C156.16 70.9567 156.281 70.581 156.524 70.259C156.767 69.9323 157.103 69.6803 157.532 69.503C157.961 69.321 158.461 69.23 159.03 69.23C159.599 69.23 160.108 69.3233 160.556 69.51C161.009 69.692 161.373 69.9487 161.648 70.28C161.923 70.6113 162.087 70.9963 162.138 71.435L161.088 71.624C161.018 71.1807 160.796 70.8307 160.423 70.574C160.054 70.3127 159.585 70.1773 159.016 70.168C158.479 70.154 158.043 70.2567 157.707 70.476C157.371 70.6907 157.203 70.9777 157.203 71.337C157.203 71.5377 157.264 71.7103 157.385 71.855C157.506 71.995 157.726 72.128 158.043 72.254C158.365 72.38 158.822 72.5177 159.415 72.667C160.11 72.8443 160.656 73.031 161.053 73.227C161.45 73.423 161.732 73.654 161.9 73.92C162.068 74.186 162.152 74.515 162.152 74.907C162.152 75.621 161.886 76.1833 161.354 76.594C160.827 77 160.099 77.203 159.17 77.203ZM168.67 77.21C168.101 77.21 167.623 77.1073 167.235 76.902C166.853 76.6967 166.566 76.4237 166.374 76.083C166.183 75.7423 166.087 75.3713 166.087 74.97C166.087 74.5593 166.169 74.2093 166.332 73.92C166.5 73.626 166.727 73.3857 167.011 73.199C167.301 73.0123 167.634 72.87 168.012 72.772C168.395 72.6787 168.817 72.597 169.279 72.527C169.746 72.4523 170.201 72.3893 170.644 72.338C171.092 72.282 171.484 72.2283 171.82 72.177L171.456 72.401C171.47 71.6543 171.326 71.1013 171.022 70.742C170.719 70.3827 170.192 70.203 169.44 70.203C168.922 70.203 168.484 70.3197 168.124 70.553C167.77 70.7863 167.52 71.155 167.375 71.659L166.374 71.365C166.547 70.6883 166.895 70.1633 167.417 69.79C167.94 69.4167 168.619 69.23 169.454 69.23C170.145 69.23 170.731 69.3607 171.211 69.622C171.697 69.8787 172.04 70.252 172.24 70.742C172.334 70.9613 172.394 71.2063 172.422 71.477C172.45 71.7477 172.464 72.023 172.464 72.303V77H171.547V75.103L171.813 75.215C171.557 75.8637 171.158 76.3583 170.616 76.699C170.075 77.0397 169.426 77.21 168.67 77.21ZM168.789 76.321C169.27 76.321 169.69 76.2347 170.049 76.062C170.409 75.8893 170.698 75.6537 170.917 75.355C171.137 75.0517 171.279 74.711 171.344 74.333C171.4 74.0903 171.431 73.8243 171.435 73.535C171.44 73.241 171.442 73.0217 171.442 72.877L171.834 73.08C171.484 73.1267 171.104 73.1733 170.693 73.22C170.287 73.2667 169.886 73.3203 169.489 73.381C169.097 73.4417 168.743 73.514 168.425 73.598C168.211 73.6587 168.003 73.745 167.802 73.857C167.602 73.9643 167.436 74.109 167.305 74.291C167.179 74.473 167.116 74.6993 167.116 74.97C167.116 75.1893 167.17 75.4017 167.277 75.607C167.389 75.8123 167.567 75.9827 167.809 76.118C168.057 76.2533 168.383 76.321 168.789 76.321ZM176.057 77L173.313 69.44H174.356L176.589 75.656L178.808 69.44H179.865L177.121 77H176.057ZM182.862 77.21C182.292 77.21 181.814 77.1073 181.427 76.902C181.044 76.6967 180.757 76.4237 180.566 76.083C180.374 75.7423 180.279 75.3713 180.279 74.97C180.279 74.5593 180.36 74.2093 180.524 73.92C180.692 73.626 180.918 73.3857 181.203 73.199C181.492 73.0123 181.826 72.87 182.204 72.772C182.586 72.6787 183.009 72.597 183.471 72.527C183.937 72.4523 184.392 72.3893 184.836 72.338C185.284 72.282 185.676 72.2283 186.012 72.177L185.648 72.401C185.662 71.6543 185.517 71.1013 185.214 70.742C184.91 70.3827 184.383 70.203 183.632 70.203C183.114 70.203 182.675 70.3197 182.316 70.553C181.961 70.7863 181.711 71.155 181.567 71.659L180.566 71.365C180.738 70.6883 181.086 70.1633 181.609 69.79C182.131 69.4167 182.81 69.23 183.646 69.23C184.336 69.23 184.922 69.3607 185.403 69.622C185.888 69.8787 186.231 70.252 186.432 70.742C186.525 70.9613 186.586 71.2063 186.614 71.477C186.642 71.7477 186.656 72.023 186.656 72.303V77H185.739V75.103L186.005 75.215C185.748 75.8637 185.349 76.3583 184.808 76.699C184.266 77.0397 183.618 77.21 182.862 77.21ZM182.981 76.321C183.461 76.321 183.881 76.2347 184.241 76.062C184.6 75.8893 184.889 75.6537 185.109 75.355C185.328 75.0517 185.47 74.711 185.536 74.333C185.592 74.0903 185.622 73.8243 185.627 73.535C185.631 73.241 185.634 73.0217 185.634 72.877L186.026 73.08C185.676 73.1267 185.295 73.1733 184.885 73.22C184.479 73.2667 184.077 73.3203 183.681 73.381C183.289 73.4417 182.934 73.514 182.617 73.598C182.402 73.6587 182.194 73.745 181.994 73.857C181.793 73.9643 181.627 74.109 181.497 74.291C181.371 74.473 181.308 74.6993 181.308 74.97C181.308 75.1893 181.361 75.4017 181.469 75.607C181.581 75.8123 181.758 75.9827 182.001 76.118C182.248 76.2533 182.575 76.321 182.981 76.321ZM188.618 68.005V66.85H189.647V68.005H188.618ZM188.618 77V69.44H189.647V77H188.618ZM191.886 77V66.71H192.915V77H191.886ZM197.176 77.21C196.607 77.21 196.129 77.1073 195.741 76.902C195.359 76.6967 195.072 76.4237 194.88 76.083C194.689 75.7423 194.593 75.3713 194.593 74.97C194.593 74.5593 194.675 74.2093 194.838 73.92C195.006 73.626 195.233 73.3857 195.517 73.199C195.807 73.0123 196.14 72.87 196.518 72.772C196.901 72.6787 197.323 72.597 197.785 72.527C198.252 72.4523 198.707 72.3893 199.15 72.338C199.598 72.282 199.99 72.2283 200.326 72.177L199.962 72.401C199.976 71.6543 199.832 71.1013 199.528 70.742C199.225 70.3827 198.698 70.203 197.946 70.203C197.428 70.203 196.99 70.3197 196.63 70.553C196.276 70.7863 196.026 71.155 195.881 71.659L194.88 71.365C195.053 70.6883 195.401 70.1633 195.923 69.79C196.446 69.4167 197.125 69.23 197.96 69.23C198.651 69.23 199.237 69.3607 199.717 69.622C200.203 69.8787 200.546 70.252 200.746 70.742C200.84 70.9613 200.9 71.2063 200.928 71.477C200.956 71.7477 200.97 72.023 200.97 72.303V77H200.053V75.103L200.319 75.215C200.063 75.8637 199.664 76.3583 199.122 76.699C198.581 77.0397 197.932 77.21 197.176 77.21ZM197.295 76.321C197.776 76.321 198.196 76.2347 198.555 76.062C198.915 75.8893 199.204 75.6537 199.423 75.355C199.643 75.0517 199.785 74.711 199.85 74.333C199.906 74.0903 199.937 73.8243 199.941 73.535C199.946 73.241 199.948 73.0217 199.948 72.877L200.34 73.08C199.99 73.1267 199.61 73.1733 199.199 73.22C198.793 73.2667 198.392 73.3203 197.995 73.381C197.603 73.4417 197.249 73.514 196.931 73.598C196.717 73.6587 196.509 73.745 196.308 73.857C196.108 73.9643 195.942 74.109 195.811 74.291C195.685 74.473 195.622 74.6993 195.622 74.97C195.622 75.1893 195.676 75.4017 195.783 75.607C195.895 75.8123 196.073 75.9827 196.315 76.118C196.563 76.2533 196.889 76.321 197.295 76.321ZM206.188 77.21C205.492 77.21 204.904 77.035 204.424 76.685C203.943 76.3303 203.579 75.852 203.332 75.25C203.084 74.6433 202.961 73.9643 202.961 73.213C202.961 72.4477 203.084 71.7663 203.332 71.169C203.584 70.567 203.952 70.0933 204.438 69.748C204.923 69.4027 205.52 69.23 206.23 69.23C206.92 69.23 207.513 69.405 208.008 69.755C208.502 70.105 208.88 70.581 209.142 71.183C209.408 71.785 209.541 72.4617 209.541 73.213C209.541 73.969 209.408 74.648 209.142 75.25C208.876 75.852 208.493 76.3303 207.994 76.685C207.494 77.035 206.892 77.21 206.188 77.21ZM202.786 77V66.92H203.822V71.309H203.71V77H202.786ZM206.083 76.251C206.61 76.251 207.049 76.118 207.399 75.852C207.749 75.586 208.01 75.2243 208.183 74.767C208.36 74.305 208.449 73.787 208.449 73.213C208.449 72.6437 208.362 72.1303 208.19 71.673C208.017 71.2157 207.753 70.854 207.399 70.588C207.049 70.322 206.603 70.189 206.062 70.189C205.534 70.189 205.096 70.3173 204.746 70.574C204.4 70.8307 204.141 71.1877 203.969 71.645C203.796 72.0977 203.71 72.6203 203.71 73.213C203.71 73.7963 203.796 74.319 203.969 74.781C204.141 75.2383 204.403 75.5977 204.753 75.859C205.103 76.1203 205.546 76.251 206.083 76.251ZM211.218 77V66.71H212.247V77H211.218ZM217.544 77.21C216.807 77.21 216.168 77.0467 215.626 76.72C215.09 76.3933 214.672 75.9337 214.373 75.341C214.075 74.7483 213.925 74.053 213.925 73.255C213.925 72.429 214.072 71.715 214.366 71.113C214.66 70.511 215.073 70.0467 215.605 69.72C216.142 69.3933 216.774 69.23 217.502 69.23C218.249 69.23 218.886 69.4027 219.413 69.748C219.941 70.0887 220.34 70.5787 220.61 71.218C220.881 71.8573 221.005 72.6203 220.981 73.507H219.931V73.143C219.913 72.163 219.7 71.4233 219.294 70.924C218.893 70.4247 218.305 70.175 217.53 70.175C216.718 70.175 216.095 70.4387 215.661 70.966C215.232 71.4933 215.017 72.2447 215.017 73.22C215.017 74.172 215.232 74.9117 215.661 75.439C216.095 75.9617 216.709 76.223 217.502 76.223C218.044 76.223 218.515 76.0993 218.916 75.852C219.322 75.6 219.642 75.2383 219.875 74.767L220.834 75.138C220.536 75.796 220.095 76.307 219.511 76.671C218.933 77.0303 218.277 77.21 217.544 77.21ZM214.653 73.507V72.646H220.428V73.507H214.653ZM225.057 76.993L225.064 76.055L229.621 71.939C230.013 71.5843 230.272 71.2483 230.398 70.931C230.529 70.609 230.594 70.273 230.594 69.923C230.594 69.5077 230.496 69.132 230.3 68.796C230.104 68.46 229.841 68.194 229.509 67.998C229.178 67.7973 228.807 67.697 228.396 67.697C227.967 67.697 227.584 67.7997 227.248 68.005C226.912 68.2103 226.646 68.481 226.45 68.817C226.259 69.153 226.166 69.5193 226.17 69.916H225.12C225.12 69.3047 225.265 68.7563 225.554 68.271C225.844 67.7857 226.236 67.4053 226.73 67.13C227.225 66.85 227.785 66.71 228.41 66.71C229.022 66.71 229.57 66.8547 230.055 67.144C230.545 67.4287 230.93 67.816 231.21 68.306C231.495 68.7913 231.637 69.3327 231.637 69.93C231.637 70.35 231.586 70.721 231.483 71.043C231.385 71.3603 231.229 71.6567 231.014 71.932C230.804 72.2027 230.536 72.4827 230.209 72.772L226.163 76.426L226.002 76.006H231.637V76.993H225.057ZM237.486 77V75.047H232.768V74.067L236.142 66.92H237.297L233.923 74.067H237.486V71.127H238.522V74.067H239.621V75.047H238.522V77H237.486ZM243.854 66.92H244.911L242.223 77H241.166L243.854 66.92ZM247.273 77L250.983 67.921H246.314V66.92H252.082V67.921L248.379 77H247.273ZM259.721 77.21C258.97 77.21 258.328 77.0397 257.796 76.699C257.264 76.3583 256.856 75.887 256.571 75.285C256.286 74.683 256.144 73.9923 256.144 73.213C256.144 72.4197 256.289 71.7243 256.578 71.127C256.867 70.5297 257.278 70.0653 257.81 69.734C258.347 69.398 258.984 69.23 259.721 69.23C260.477 69.23 261.121 69.4003 261.653 69.741C262.19 70.077 262.598 70.546 262.878 71.148C263.163 71.7453 263.305 72.4337 263.305 73.213C263.305 74.0063 263.163 74.704 262.878 75.306C262.593 75.9033 262.183 76.37 261.646 76.706C261.109 77.042 260.468 77.21 259.721 77.21ZM259.721 76.223C260.561 76.223 261.186 75.9453 261.597 75.39C262.008 74.83 262.213 74.1043 262.213 73.213C262.213 72.2983 262.005 71.5703 261.59 71.029C261.179 70.4877 260.556 70.217 259.721 70.217C259.156 70.217 258.69 70.3453 258.321 70.602C257.957 70.854 257.684 71.2063 257.502 71.659C257.325 72.107 257.236 72.625 257.236 73.213C257.236 74.123 257.446 74.8533 257.866 75.404C258.286 75.95 258.904 76.223 259.721 76.223ZM270.309 77V73.143C270.309 72.723 270.269 72.338 270.19 71.988C270.111 71.6333 269.982 71.3253 269.805 71.064C269.632 70.798 269.406 70.5927 269.126 70.448C268.851 70.3033 268.515 70.231 268.118 70.231C267.754 70.231 267.432 70.294 267.152 70.42C266.877 70.546 266.643 70.728 266.452 70.966C266.265 71.1993 266.123 71.484 266.025 71.82C265.927 72.156 265.878 72.5387 265.878 72.968L265.15 72.807C265.15 72.0323 265.285 71.3813 265.556 70.854C265.827 70.3267 266.2 69.9277 266.676 69.657C267.152 69.3863 267.698 69.251 268.314 69.251C268.767 69.251 269.161 69.321 269.497 69.461C269.838 69.601 270.125 69.79 270.358 70.028C270.596 70.266 270.787 70.539 270.932 70.847C271.077 71.1503 271.182 71.4747 271.247 71.82C271.312 72.1607 271.345 72.5013 271.345 72.842V77H270.309ZM264.842 77V69.44H265.773V71.302H265.878V77H264.842ZM278.645 77V67.907H275.124V66.92H283.195V67.907H279.674V77H278.645ZM286.396 77.21C285.658 77.21 285.019 77.0467 284.478 76.72C283.941 76.3933 283.523 75.9337 283.225 75.341C282.926 74.7483 282.777 74.053 282.777 73.255C282.777 72.429 282.924 71.715 283.218 71.113C283.512 70.511 283.925 70.0467 284.457 69.72C284.993 69.3933 285.626 69.23 286.354 69.23C287.1 69.23 287.737 69.4027 288.265 69.748C288.792 70.0887 289.191 70.5787 289.462 71.218C289.732 71.8573 289.856 72.6203 289.833 73.507H288.783V73.143C288.764 72.163 288.552 71.4233 288.146 70.924C287.744 70.4247 287.156 70.175 286.382 70.175C285.57 70.175 284.947 70.4387 284.513 70.966C284.083 71.4933 283.869 72.2447 283.869 73.22C283.869 74.172 284.083 74.9117 284.513 75.439C284.947 75.9617 285.56 76.223 286.354 76.223C286.895 76.223 287.366 76.0993 287.768 75.852C288.174 75.6 288.493 75.2383 288.727 74.767L289.686 75.138C289.387 75.796 288.946 76.307 288.363 76.671C287.784 77.0303 287.128 77.21 286.396 77.21ZM283.505 73.507V72.646H289.28V73.507H283.505ZM291.526 77V66.71H292.555V77H291.526ZM297.853 77.21C297.115 77.21 296.476 77.0467 295.935 76.72C295.398 76.3933 294.98 75.9337 294.682 75.341C294.383 74.7483 294.234 74.053 294.234 73.255C294.234 72.429 294.381 71.715 294.675 71.113C294.969 70.511 295.382 70.0467 295.914 69.72C296.45 69.3933 297.083 69.23 297.811 69.23C298.557 69.23 299.194 69.4027 299.722 69.748C300.249 70.0887 300.648 70.5787 300.919 71.218C301.189 71.8573 301.313 72.6203 301.29 73.507H300.24V73.143C300.221 72.163 300.009 71.4233 299.603 70.924C299.201 70.4247 298.613 70.175 297.839 70.175C297.027 70.175 296.404 70.4387 295.97 70.966C295.54 71.4933 295.326 72.2447 295.326 73.22C295.326 74.172 295.54 74.9117 295.97 75.439C296.404 75.9617 297.017 76.223 297.811 76.223C298.352 76.223 298.823 76.0993 299.225 75.852C299.631 75.6 299.95 75.2383 300.184 74.767L301.143 75.138C300.844 75.796 300.403 76.307 299.82 76.671C299.241 77.0303 298.585 77.21 297.853 77.21ZM294.962 73.507V72.646H300.737V73.507H294.962ZM305.846 80.57C305.459 80.57 305.076 80.5117 304.698 80.395C304.325 80.283 303.98 80.1033 303.662 79.856C303.345 79.6133 303.079 79.296 302.864 78.904L303.795 78.386C304.005 78.806 304.299 79.107 304.677 79.289C305.06 79.4757 305.45 79.569 305.846 79.569C306.392 79.569 306.833 79.4663 307.169 79.261C307.51 79.0603 307.757 78.7617 307.911 78.365C308.065 77.9683 308.14 77.4737 308.135 76.881V74.865H308.254V69.44H309.171V76.895C309.171 77.1097 309.164 77.315 309.15 77.511C309.141 77.7117 309.12 77.9077 309.087 78.099C308.999 78.6637 308.814 79.128 308.534 79.492C308.259 79.856 307.895 80.1267 307.442 80.304C306.994 80.4813 306.462 80.57 305.846 80.57ZM305.776 77.21C305.072 77.21 304.47 77.035 303.97 76.685C303.471 76.3303 303.088 75.852 302.822 75.25C302.556 74.648 302.423 73.969 302.423 73.213C302.423 72.4617 302.554 71.785 302.815 71.183C303.081 70.581 303.462 70.105 303.956 69.755C304.451 69.405 305.044 69.23 305.734 69.23C306.444 69.23 307.041 69.4027 307.526 69.748C308.012 70.0933 308.378 70.567 308.625 71.169C308.877 71.7663 309.003 72.4477 309.003 73.213C309.003 73.9643 308.88 74.6433 308.632 75.25C308.385 75.852 308.021 76.3303 307.54 76.685C307.06 77.035 306.472 77.21 305.776 77.21ZM305.881 76.251C306.418 76.251 306.861 76.1203 307.211 75.859C307.561 75.5977 307.823 75.2383 307.995 74.781C308.168 74.319 308.254 73.7963 308.254 73.213C308.254 72.6203 308.168 72.0977 307.995 71.645C307.823 71.1877 307.561 70.8307 307.211 70.574C306.866 70.3173 306.43 70.189 305.902 70.189C305.361 70.189 304.913 70.322 304.558 70.588C304.204 70.854 303.94 71.2157 303.767 71.673C303.599 72.1303 303.515 72.6437 303.515 73.213C303.515 73.787 303.602 74.305 303.774 74.767C303.952 75.2243 304.215 75.586 304.565 75.852C304.915 76.118 305.354 76.251 305.881 76.251ZM311.128 77V69.44H312.052V71.26L311.87 71.022C311.954 70.798 312.064 70.5927 312.199 70.406C312.335 70.2147 312.482 70.0583 312.64 69.937C312.836 69.7643 313.065 69.6337 313.326 69.545C313.588 69.4517 313.851 69.398 314.117 69.384C314.383 69.3653 314.626 69.384 314.845 69.44V70.406C314.57 70.336 314.269 70.3197 313.942 70.357C313.616 70.3943 313.315 70.525 313.039 70.749C312.787 70.945 312.598 71.1807 312.472 71.456C312.346 71.7267 312.262 72.016 312.22 72.324C312.178 72.6273 312.157 72.9283 312.157 73.227V77H311.128ZM318.049 77.21C317.48 77.21 317.002 77.1073 316.614 76.902C316.232 76.6967 315.945 76.4237 315.753 76.083C315.562 75.7423 315.466 75.3713 315.466 74.97C315.466 74.5593 315.548 74.2093 315.711 73.92C315.879 73.626 316.106 73.3857 316.39 73.199C316.68 73.0123 317.013 72.87 317.391 72.772C317.774 72.6787 318.196 72.597 318.658 72.527C319.125 72.4523 319.58 72.3893 320.023 72.338C320.471 72.282 320.863 72.2283 321.199 72.177L320.835 72.401C320.849 71.6543 320.705 71.1013 320.401 70.742C320.098 70.3827 319.571 70.203 318.819 70.203C318.301 70.203 317.863 70.3197 317.503 70.553C317.149 70.7863 316.899 71.155 316.754 71.659L315.753 71.365C315.926 70.6883 316.274 70.1633 316.796 69.79C317.319 69.4167 317.998 69.23 318.833 69.23C319.524 69.23 320.11 69.3607 320.59 69.622C321.076 69.8787 321.419 70.252 321.619 70.742C321.713 70.9613 321.773 71.2063 321.801 71.477C321.829 71.7477 321.843 72.023 321.843 72.303V77H320.926V75.103L321.192 75.215C320.936 75.8637 320.537 76.3583 319.995 76.699C319.454 77.0397 318.805 77.21 318.049 77.21ZM318.168 76.321C318.649 76.321 319.069 76.2347 319.428 76.062C319.788 75.8893 320.077 75.6537 320.296 75.355C320.516 75.0517 320.658 74.711 320.723 74.333C320.779 74.0903 320.81 73.8243 320.814 73.535C320.819 73.241 320.821 73.0217 320.821 72.877L321.213 73.08C320.863 73.1267 320.483 73.1733 320.072 73.22C319.666 73.2667 319.265 73.3203 318.868 73.381C318.476 73.4417 318.122 73.514 317.804 73.598C317.59 73.6587 317.382 73.745 317.181 73.857C316.981 73.9643 316.815 74.109 316.684 74.291C316.558 74.473 316.495 74.6993 316.495 74.97C316.495 75.1893 316.549 75.4017 316.656 75.607C316.768 75.8123 316.946 75.9827 317.188 76.118C317.436 76.2533 317.762 76.321 318.168 76.321ZM332.682 77L332.689 72.037C332.689 71.4537 332.525 70.9963 332.199 70.665C331.877 70.329 331.466 70.161 330.967 70.161C330.682 70.161 330.404 70.2263 330.134 70.357C329.863 70.4877 329.639 70.6977 329.462 70.987C329.289 71.2763 329.203 71.6543 329.203 72.121L328.594 71.946C328.58 71.4047 328.685 70.931 328.909 70.525C329.137 70.119 329.45 69.804 329.847 69.58C330.248 69.3513 330.701 69.237 331.205 69.237C331.965 69.237 332.574 69.4727 333.032 69.944C333.489 70.4107 333.718 71.043 333.718 71.841L333.711 77H332.682ZM323.659 77V69.44H324.583V71.302H324.695V77H323.659ZM328.181 77L328.188 72.107C328.188 71.505 328.027 71.0313 327.705 70.686C327.387 70.336 326.967 70.161 326.445 70.161C325.922 70.161 325.5 70.3407 325.178 70.7C324.856 71.0547 324.695 71.5283 324.695 72.121L324.079 71.785C324.079 71.2997 324.193 70.8657 324.422 70.483C324.65 70.0957 324.963 69.7923 325.36 69.573C325.756 69.349 326.207 69.237 326.711 69.237C327.191 69.237 327.618 69.3397 327.992 69.545C328.37 69.7503 328.666 70.049 328.881 70.441C329.095 70.833 329.203 71.309 329.203 71.869L329.196 77H328.181ZM335.729 77V75.803H336.926V77H335.729Z" fill="#E2E8F0"/>
<path d="M41.2453 113.21C40.2381 113.21 39.3744 112.99 38.6542 112.55C37.9339 112.109 37.3815 111.495 36.9969 110.706C36.6123 109.918 36.42 109.002 36.42 107.96C36.42 106.918 36.6123 106.002 36.9969 105.214C37.3815 104.425 37.9339 103.811 38.6542 103.37C39.3744 102.93 40.2381 102.71 41.2453 102.71C42.4058 102.71 43.3735 103 44.1486 103.581C44.9236 104.162 45.4663 104.945 45.7767 105.932L44.0757 106.399C43.8828 105.741 43.5505 105.227 43.0788 104.857C42.607 104.486 41.9959 104.301 41.2453 104.301C40.5687 104.301 40.0048 104.453 39.5536 104.756C39.1025 105.06 38.7634 105.486 38.5363 106.034C38.3092 106.583 38.1949 107.225 38.1933 107.96C38.1917 108.695 38.3045 109.337 38.5316 109.885C38.7588 110.433 39.0986 110.859 39.5513 111.163C40.004 111.467 40.5687 111.619 41.2453 111.619C41.9959 111.619 42.607 111.432 43.0788 111.06C43.5505 110.687 43.8828 110.174 44.0757 109.521L45.7767 109.988C45.4663 110.975 44.9236 111.758 44.1486 112.339C43.3735 112.92 42.4058 113.21 41.2453 113.21ZM50.6603 113.21C49.902 113.21 49.2409 113.04 48.677 112.699C48.1131 112.358 47.6758 111.888 47.3651 111.288C47.0544 110.688 46.899 109.998 46.899 109.218C46.899 108.428 47.0577 107.734 47.375 107.135C47.6923 106.535 48.1331 106.068 48.6974 105.733C49.2617 105.398 49.916 105.23 50.6603 105.23C51.4194 105.23 52.0819 105.4 52.6477 105.74C53.2136 106.081 53.6526 106.55 53.9649 107.15C54.2772 107.749 54.4333 108.438 54.4333 109.218C54.4333 110.004 54.276 110.697 53.9614 111.297C53.6468 111.896 53.2064 112.365 52.6402 112.703C52.0739 113.041 51.414 113.21 50.6603 113.21ZM50.6603 111.63C51.3284 111.63 51.8268 111.406 52.1554 110.956C52.484 110.506 52.6483 109.927 52.6483 109.218C52.6483 108.486 52.4819 107.901 52.149 107.465C51.8161 107.028 51.3199 106.81 50.6603 106.81C50.2077 106.81 49.8357 106.912 49.5444 107.115C49.2531 107.319 49.0369 107.601 48.8957 107.962C48.7546 108.323 48.684 108.742 48.684 109.218C48.684 109.953 48.8512 110.539 49.1856 110.975C49.5201 111.412 50.0117 111.63 50.6603 111.63ZM61.2 113V109.358C61.2 109.124 61.1831 108.862 61.1493 108.572C61.1154 108.283 61.0398 108.004 60.9223 107.735C60.8049 107.467 60.6283 107.246 60.3927 107.073C60.157 106.901 59.8373 106.814 59.4337 106.814C59.2205 106.814 59.0092 106.849 58.7996 106.919C58.5899 106.988 58.4004 107.108 58.2308 107.277C58.0612 107.446 57.9249 107.68 57.8219 107.977C57.7188 108.275 57.6673 108.655 57.6673 109.115L56.6663 108.686C56.6663 108.044 56.7912 107.461 57.0408 106.937C57.2905 106.414 57.6576 105.997 58.1422 105.688C58.6267 105.38 59.2244 105.225 59.9353 105.225C60.493 105.225 60.954 105.318 61.3184 105.503C61.6828 105.688 61.9723 105.926 62.187 106.216C62.4016 106.507 62.5603 106.816 62.663 107.143C62.7656 107.47 62.8321 107.779 62.8625 108.071C62.8928 108.363 62.908 108.599 62.908 108.779V113H61.2ZM55.9593 113V105.44H57.462V107.785H57.6673V113H55.9593ZM69.159 113C68.6604 113.096 68.1714 113.137 67.6919 113.124C67.2124 113.11 66.7842 113.022 66.4074 112.858C66.0306 112.694 65.7446 112.431 65.5493 112.071C65.3751 111.742 65.283 111.408 65.2728 111.068C65.2627 110.728 65.2577 110.342 65.2577 109.911V103.34H66.9423V109.817C66.9423 110.117 66.9458 110.381 66.9528 110.611C66.9598 110.841 67.0076 111.029 67.0963 111.175C67.2643 111.453 67.5323 111.608 67.9001 111.64C68.268 111.673 68.6877 111.655 69.159 111.588V113ZM63.888 106.763V105.44H69.159V106.763H63.888ZM72.9063 113.21C72.3572 113.21 71.8939 113.106 71.5163 112.899C71.1386 112.692 70.8532 112.415 70.6599 112.07C70.4666 111.724 70.37 111.343 70.37 110.928C70.37 110.562 70.4309 110.235 70.5526 109.945C70.6743 109.655 70.8614 109.404 71.1138 109.191C71.3661 108.979 71.6915 108.804 72.0897 108.667C72.3961 108.567 72.7525 108.478 73.1589 108.4C73.5653 108.323 74.0081 108.25 74.4872 108.182C74.9663 108.114 75.4683 108.041 75.9933 107.962L75.3867 108.301C75.3906 107.779 75.2741 107.394 75.0373 107.146C74.8004 106.899 74.3989 106.775 73.8327 106.775C73.4935 106.775 73.1655 106.855 72.8486 107.014C72.5316 107.174 72.3098 107.447 72.183 107.832L70.6407 107.349C70.8281 106.711 71.1849 106.198 71.7111 105.811C72.2373 105.424 72.946 105.23 73.8373 105.23C74.5101 105.23 75.1012 105.339 75.6107 105.558C76.1201 105.776 76.4997 106.136 76.7493 106.637C76.8847 106.901 76.9663 107.173 76.9943 107.45C77.0223 107.728 77.0363 108.032 77.0363 108.361V113H75.557V111.36L75.802 111.63C75.4614 112.174 75.0633 112.573 74.6079 112.828C74.1525 113.083 73.5853 113.21 72.9063 113.21ZM73.24 111.864C73.6227 111.864 73.9489 111.796 74.2188 111.66C74.4887 111.524 74.7046 111.359 74.8663 111.165C75.0281 110.971 75.1362 110.786 75.1907 110.611C75.2786 110.396 75.3293 110.15 75.3429 109.873C75.3565 109.595 75.3633 109.37 75.3633 109.197L75.8813 109.353C75.3696 109.435 74.9315 109.505 74.5671 109.564C74.2027 109.623 73.8906 109.679 73.6308 109.733C73.3711 109.786 73.1404 109.846 72.939 109.913C72.7453 109.985 72.5806 110.066 72.4449 110.159C72.3092 110.251 72.2051 110.358 72.1328 110.48C72.0605 110.602 72.0243 110.744 72.0243 110.907C72.0243 111.091 72.0704 111.256 72.1626 111.4C72.2547 111.544 72.3908 111.658 72.5709 111.74C72.751 111.822 72.974 111.864 73.24 111.864ZM82.137 113.21C81.3584 113.21 80.6934 113.036 80.142 112.689C79.5906 112.341 79.1686 111.866 78.8762 111.265C78.5837 110.663 78.4363 109.981 78.434 109.22C78.4363 108.448 78.5888 107.761 78.8913 107.16C79.1939 106.558 79.6228 106.087 80.1782 105.744C80.7335 105.401 81.3942 105.23 82.1603 105.23C83.0198 105.23 83.747 105.445 84.342 105.876C84.937 106.307 85.3235 106.896 85.5017 107.643L83.8217 108.102C83.6933 107.695 83.4771 107.377 83.173 107.15C82.8689 106.923 82.5236 106.81 82.137 106.81C81.6968 106.81 81.3351 106.914 81.052 107.123C80.7689 107.333 80.5596 107.619 80.4243 107.982C80.289 108.345 80.2205 108.758 80.219 109.22C80.2213 109.939 80.3833 110.521 80.7049 110.965C81.0265 111.408 81.5039 111.63 82.137 111.63C82.5873 111.63 82.9416 111.527 83.1998 111.321C83.4581 111.115 83.6529 110.819 83.7843 110.433L85.5017 110.814C85.2707 111.584 84.8635 112.176 84.2802 112.589C83.6968 113.003 82.9824 113.21 82.137 113.21ZM91.342 113C90.8434 113.096 90.3544 113.137 89.8749 113.124C89.3954 113.11 88.9673 113.022 88.5904 112.858C88.2136 112.694 87.9276 112.431 87.7323 112.071C87.5581 111.742 87.466 111.408 87.4558 111.068C87.4457 110.728 87.4407 110.342 87.4407 109.911V103.34H89.1253V109.817C89.1253 110.117 89.1288 110.381 89.1358 110.611C89.1428 110.841 89.1906 111.029 89.2793 111.175C89.4473 111.453 89.7153 111.608 90.0831 111.64C90.451 111.673 90.8707 111.655 91.342 111.588V113ZM86.071 106.763V105.44H91.342V106.763H86.071ZM99.504 113.21C98.7682 113.21 98.1052 113.082 97.5148 112.825C96.9245 112.568 96.4392 112.201 96.0588 111.723C95.6785 111.245 95.4354 110.676 95.3297 110.016L97.0843 109.752C97.2313 110.349 97.537 110.812 98.0013 111.139C98.4656 111.467 99.0015 111.63 99.609 111.63C99.9675 111.63 100.306 111.574 100.624 111.461C100.942 111.348 101.2 111.184 101.398 110.968C101.596 110.752 101.695 110.49 101.695 110.181C101.695 110.039 101.672 109.909 101.626 109.791C101.579 109.673 101.511 109.567 101.42 109.474C101.33 109.38 101.213 109.295 101.071 109.219C100.929 109.143 100.763 109.075 100.573 109.017L97.971 108.249C97.747 108.185 97.5051 108.097 97.2453 107.986C96.9855 107.874 96.7405 107.723 96.5103 107.531C96.2801 107.339 96.0911 107.092 95.9433 106.79C95.7956 106.489 95.7217 106.116 95.7217 105.671C95.7217 105.022 95.8867 104.477 96.2169 104.037C96.5471 103.597 96.9906 103.267 97.5475 103.047C98.1044 102.826 98.7247 102.718 99.4083 102.722C100.097 102.729 100.713 102.849 101.255 103.08C101.797 103.311 102.25 103.645 102.613 104.082C102.975 104.519 103.232 105.05 103.382 105.673L101.569 105.984C101.496 105.63 101.352 105.329 101.139 105.08C100.925 104.832 100.665 104.642 100.36 104.51C100.054 104.379 99.7295 104.309 99.385 104.301C99.0482 104.294 98.7367 104.343 98.4505 104.449C98.1643 104.555 97.9334 104.706 97.7581 104.901C97.5827 105.096 97.495 105.325 97.495 105.587C97.495 105.837 97.5694 106.039 97.7184 106.194C97.8673 106.348 98.0534 106.472 98.2766 106.564C98.4999 106.656 98.7246 106.733 98.951 106.793L100.757 107.295C101.004 107.362 101.282 107.451 101.589 107.563C101.896 107.675 102.192 107.831 102.477 108.032C102.761 108.232 102.996 108.496 103.181 108.823C103.366 109.15 103.459 109.564 103.459 110.065C103.459 110.588 103.351 111.047 103.135 111.442C102.919 111.837 102.626 112.164 102.256 112.425C101.886 112.686 101.464 112.882 100.99 113.013C100.516 113.144 100.02 113.21 99.504 113.21ZM107.811 113.215C107.253 113.215 106.792 113.122 106.428 112.937C106.063 112.752 105.774 112.514 105.559 112.224C105.344 111.933 105.186 111.624 105.083 111.297C104.98 110.97 104.914 110.661 104.884 110.369C104.853 110.077 104.838 109.841 104.838 109.661V105.44H106.546V109.082C106.546 109.316 106.563 109.577 106.597 109.867C106.631 110.157 106.706 110.436 106.824 110.705C106.941 110.973 107.118 111.194 107.353 111.367C107.589 111.539 107.909 111.626 108.312 111.626C108.525 111.626 108.737 111.591 108.946 111.521C109.156 111.452 109.346 111.332 109.515 111.163C109.685 110.994 109.821 110.759 109.924 110.46C110.027 110.16 110.079 109.782 110.079 109.325L111.08 109.754C111.08 110.396 110.955 110.979 110.705 111.503C110.455 112.026 110.088 112.443 109.604 112.752C109.119 113.06 108.522 113.215 107.811 113.215ZM110.284 113V110.655H110.079V105.44H111.775V113H110.284ZM117.366 113.21C116.628 113.21 116.011 113.035 115.513 112.684C115.015 112.333 114.64 111.856 114.387 111.254C114.134 110.652 114.008 109.973 114.008 109.218C114.008 108.46 114.134 107.781 114.385 107.179C114.636 106.577 115.006 106.102 115.495 105.753C115.984 105.404 116.586 105.23 117.303 105.23C118.018 105.23 118.639 105.403 119.165 105.75C119.691 106.096 120.099 106.57 120.387 107.17C120.675 107.77 120.819 108.452 120.819 109.218C120.819 109.974 120.676 110.653 120.391 111.255C120.106 111.858 119.705 112.334 119.189 112.684C118.672 113.035 118.064 113.21 117.366 113.21ZM113.723 116.36V105.44H115.214V110.748H115.42V116.36H113.723ZM117.109 111.7C117.548 111.7 117.91 111.59 118.193 111.369C118.477 111.148 118.688 110.85 118.826 110.474C118.965 110.099 119.034 109.68 119.034 109.218C119.034 108.76 118.963 108.344 118.822 107.969C118.681 107.594 118.464 107.296 118.171 107.073C117.878 106.851 117.505 106.74 117.051 106.74C116.622 106.74 116.272 106.843 116.002 107.051C115.731 107.259 115.532 107.549 115.405 107.922C115.278 108.295 115.214 108.727 115.214 109.218C115.214 109.707 115.278 110.138 115.404 110.512C115.531 110.886 115.734 111.177 116.012 111.387C116.291 111.596 116.656 111.7 117.109 111.7ZM125.99 113.21C125.252 113.21 124.635 113.035 124.137 112.684C123.639 112.333 123.264 111.856 123.011 111.254C122.758 110.652 122.632 109.973 122.632 109.218C122.632 108.46 122.758 107.781 123.009 107.179C123.26 106.577 123.63 106.102 124.119 105.753C124.608 105.404 125.21 105.23 125.927 105.23C126.642 105.23 127.263 105.403 127.789 105.75C128.315 106.096 128.723 106.57 129.011 107.17C129.299 107.77 129.443 108.452 129.443 109.218C129.443 109.974 129.3 110.653 129.015 111.255C128.73 111.858 128.329 112.334 127.813 112.684C127.296 113.035 126.688 113.21 125.99 113.21ZM122.347 116.36V105.44H123.838V110.748H124.044V116.36H122.347ZM125.733 111.7C126.172 111.7 126.534 111.59 126.817 111.369C127.101 111.148 127.312 110.85 127.45 110.474C127.589 110.099 127.658 109.68 127.658 109.218C127.658 108.76 127.587 108.344 127.446 107.969C127.305 107.594 127.088 107.296 126.795 107.073C126.502 106.851 126.129 106.74 125.675 106.74C125.246 106.74 124.896 106.843 124.626 107.051C124.355 107.259 124.156 107.549 124.029 107.922C123.902 108.295 123.838 108.727 123.838 109.218C123.838 109.707 123.902 110.138 124.028 110.512C124.155 110.886 124.358 111.177 124.636 111.387C124.915 111.596 125.28 111.7 125.733 111.7ZM134.324 113.21C133.566 113.21 132.905 113.04 132.341 112.699C131.777 112.358 131.34 111.888 131.029 111.288C130.718 110.688 130.563 109.998 130.563 109.218C130.563 108.428 130.722 107.734 131.039 107.135C131.356 106.535 131.797 106.068 132.361 105.733C132.926 105.398 133.58 105.23 134.324 105.23C135.083 105.23 135.746 105.4 136.312 105.74C136.878 106.081 137.317 106.55 137.629 107.15C137.941 107.749 138.097 108.438 138.097 109.218C138.097 110.004 137.94 110.697 137.625 111.297C137.311 111.896 136.87 112.365 136.304 112.703C135.738 113.041 135.078 113.21 134.324 113.21ZM134.324 111.63C134.992 111.63 135.491 111.406 135.819 110.956C136.148 110.506 136.312 109.927 136.312 109.218C136.312 108.486 136.146 107.901 135.813 107.465C135.48 107.028 134.984 106.81 134.324 106.81C133.872 106.81 133.5 106.912 133.208 107.115C132.917 107.319 132.701 107.601 132.56 107.962C132.419 108.323 132.348 108.742 132.348 109.218C132.348 109.953 132.515 110.539 132.85 110.975C133.184 111.412 133.676 111.63 134.324 111.63ZM139.635 113V105.44H141.126V107.281L140.944 107.043C141.039 106.791 141.164 106.561 141.321 106.352C141.477 106.144 141.664 105.972 141.882 105.837C142.068 105.71 142.274 105.612 142.5 105.541C142.726 105.471 142.958 105.428 143.196 105.412C143.434 105.396 143.666 105.405 143.893 105.44V107.015C143.666 106.949 143.408 106.928 143.118 106.953C142.828 106.978 142.565 107.059 142.328 107.195C142.097 107.321 141.908 107.483 141.761 107.678C141.615 107.874 141.506 108.096 141.436 108.346C141.366 108.596 141.331 108.867 141.331 109.159V113H139.635ZM149.652 113C149.153 113.096 148.664 113.137 148.185 113.124C147.705 113.11 147.277 113.022 146.9 112.858C146.524 112.694 146.238 112.431 146.042 112.071C145.868 111.742 145.776 111.408 145.766 111.068C145.756 110.728 145.751 110.342 145.751 109.911V103.34H147.435V109.817C147.435 110.117 147.439 110.381 147.446 110.611C147.453 110.841 147.501 111.029 147.589 111.175C147.757 111.453 148.025 111.608 148.393 111.64C148.761 111.673 149.181 111.655 149.652 111.588V113ZM144.381 106.763V105.44H149.652V106.763H144.381Z" fill="white" fill-opacity="0.9"/>
<path d="M160.977 112L160.043 111.033L162.41 108.667H154.31V107.333H162.41L160.043 104.967L160.977 104L164.977 108L160.977 112Z" fill="white" fill-opacity="0.9"/>
</g>
</g>
<defs>
<filter id="filter0_dd_18_178" x="0" y="0" width="472" height="164" filterUnits="userSpaceOnUse" color-interpolation-filters="sRGB">
<feFlood flood-opacity="0" result="BackgroundImageFix"/>
<feColorMatrix in="SourceAlpha" type="matrix" values="0 0 0 0 0 0 0 0 0 0 0 0 0 0 0 0 0 0 127 0" result="hardAlpha"/>
<feMorphology radius="4" operator="erode" in="SourceAlpha" result="effect1_dropShadow_18_178"/>
<feOffset dy="4"/>
<feGaussianBlur stdDeviation="3"/>
<feComposite in2="hardAlpha" operator="out"/>
<feColorMatrix type="matrix" values="0 0 0 0 0.0392157 0 0 0 0 0.156863 0 0 0 0 0.215686 0 0 0 0.2 0"/>
<feBlend mode="normal" in2="BackgroundImageFix" result="effect1_dropShadow_18_178"/>
<feColorMatrix in="SourceAlpha" type="matrix" values="0 0 0 0 0 0 0 0 0 0 0 0 0 0 0 0 0 0 127 0" result="hardAlpha"/>
<feMorphology radius="3" operator="erode" in="SourceAlpha" result="effect2_dropShadow_18_178"/>
<feOffset dy="10"/>
<feGaussianBlur stdDeviation="7.5"/>
<feComposite in2="hardAlpha" operator="out"/>
<feColorMatrix type="matrix" values="0 0 0 0 0.0392157 0 0 0 0 0.156863 0 0 0 0 0.215686 0 0 0 0.2 0"/>
<feBlend mode="normal" in2="effect1_dropShadow_18_178" result="effect2_dropShadow_18_178"/>
<feBlend mode="normal" in="SourceGraphic" in2="effect2_dropShadow_18_178" result="shape"/>
</filter>
<clipPath id="clip0_18_178">
<rect x="12" y="2" width="448" height="140" rx="12" fill="white"/>
</clipPath>
</defs>
</svg>
