<svg width="40" height="40" viewBox="0 0 40 40" fill="none" xmlns="http://www.w3.org/2000/svg">
<rect width="40" height="40" rx="20" fill="white" fill-opacity="0.1"/>
<path fill-rule="evenodd" clip-rule="evenodd" d="M28.3333 20C28.3333 15.3975 24.6025 11.6666 20 11.6666C15.3975 11.6666 11.6667 15.3975 11.6667 20C11.6667 24.1591 14.7142 27.6066 18.6983 28.2316V22.4091H16.5817V20H18.6983V18.1641C18.6983 16.0758 19.9417 14.9225 21.8458 14.9225C22.7575 14.9225 23.7108 15.085 23.7108 15.085V17.135H22.6608C21.625 17.135 21.3025 17.7775 21.3025 18.4366V20H23.6133L23.2442 22.4083H21.3025V28.2316C25.2858 27.6066 28.3333 24.1591 28.3333 20Z" fill="#CBD5E1"/>
</svg>
