<svg width="40" height="40" viewBox="0 0 40 40" fill="none" xmlns="http://www.w3.org/2000/svg">
<rect width="40" height="40" rx="20" fill="white" fill-opacity="0.1"/>
<path fill-rule="evenodd" clip-rule="evenodd" d="M20.2625 11.6666C22.2875 11.6666 22.5825 11.6775 23.4358 11.7166C24.3225 11.7575 24.9283 11.8983 25.4583 12.1041C26.0146 12.3132 26.5185 12.6411 26.935 13.065C27.3589 13.4814 27.6868 13.9854 27.8958 14.5416C28.1017 15.0716 28.2425 15.6775 28.2833 16.5641C28.3233 17.4533 28.3333 17.7366 28.3333 20V20.0666C28.3333 22.2691 28.3233 22.5558 28.2833 23.4358C28.2425 24.3225 28.1017 24.9283 27.8958 25.4583C27.6868 26.0145 27.3589 26.5185 26.935 26.935C26.5185 27.3588 26.0146 27.6867 25.4583 27.8958C24.9283 28.1016 24.3225 28.2425 23.4358 28.2833C22.5467 28.3233 22.2633 28.3333 20 28.3333H19.9333C17.7308 28.3333 17.4442 28.3233 16.5642 28.2833C15.6775 28.2425 15.0717 28.1016 14.5417 27.8958C13.9854 27.6867 13.4815 27.3588 13.065 26.935C12.6411 26.5185 12.3132 26.0145 12.1042 25.4583C11.8983 24.9283 11.7575 24.3225 11.7167 23.4358C11.6775 22.5825 11.6667 22.2866 11.6667 20.2625V19.7375C11.6667 17.7125 11.6775 17.4175 11.7167 16.5641C11.7575 15.6775 11.8983 15.0716 12.1042 14.5416C12.3132 13.9854 12.6411 13.4814 13.065 13.065C13.4727 12.5934 13.983 12.2214 14.5567 11.9775C15.0867 11.7716 15.6925 11.6308 16.5792 11.59C17.4175 11.6775 17.7133 11.6666 19.7375 11.6666H20.2625ZM20.195 13.1683H19.805C17.7583 13.1683 17.485 13.1775 16.6325 13.2166C15.82 13.2541 15.3792 13.3891 15.085 13.5033C14.6958 13.655 14.4183 13.835 14.1267 14.1266C13.835 14.4183 13.655 14.6958 13.5033 15.085C13.3892 15.3791 13.2533 15.82 13.2167 16.6325C13.1775 17.485 13.1683 17.7583 13.1683 19.805V20.195C13.1683 22.2416 13.1775 22.515 13.2167 23.3675C13.2542 24.18 13.3892 24.6208 13.5033 24.915C13.655 25.3033 13.8358 25.5816 14.1267 25.8733C14.4183 26.165 14.6958 26.345 15.085 26.4966C15.3792 26.6108 15.82 26.7466 15.2397 26.7833C16.1181 26.8233 16.3814 26.8316 18.6072 26.8316H18.6739C20.8381 26.8316 21.1047 26.8233 21.9739 26.7833C22.7872 26.7458 23.2281 26.6108 23.5222 26.4966C23.9106 26.345 24.1889 26.165 24.4806 25.8733C24.7722 25.5816 24.9522 25.3041 25.1039 24.915C25.2181 24.6208 25.3539 24.18 25.3906 23.3675C25.4306 22.4883 25.4389 22.2258 25.4389 20V19.9333C25.4389 17.7691 25.4306 17.5025 25.3906 16.6333C25.3531 15.82 25.2181 15.3791 25.1039 15.085C24.9704 14.7229 24.7574 14.3955 24.4806 14.1266C24.2117 13.8498 23.8843 13.6368 23.5222 13.5033C23.2281 13.3891 22.7872 13.2533 21.9747 13.2166C21.1222 13.1775 20.8489 13.1683 18.8022 13.1683H20.195ZM20 15.7208C22.3617 15.7208 24.2792 17.6382 24.2792 20C24.2792 22.3617 22.3617 24.2791 20 24.2791C17.6383 24.2791 15.7208 22.3617 15.7208 20C15.7208 17.6382 17.6383 15.7208 20 15.7208ZM20 17.2225C18.4671 17.2225 17.2225 18.467 17.2225 20C17.2225 21.5329 18.4671 22.7775 20 22.7775C21.5329 22.7775 22.7775 21.5329 22.7775 20C22.7775 18.467 21.5329 17.2225 20 17.2225ZM24.4483 14.5516C24.8056 14.5516 25.1357 14.7422 25.3144 15.0516C25.493 15.361 25.493 15.7422 25.3144 16.0516C25.1357 16.361 24.8056 16.5516 24.4483 16.5516C23.8964 16.5516 23.4483 16.1035 23.4483 15.5516C23.4483 14.9997 23.8964 14.5516 24.4483 14.5516Z" fill="#CBD5E1"/>
</svg>
