<svg width="40" height="40" viewBox="0 0 40 40" fill="none" xmlns="http://www.w3.org/2000/svg">
<rect width="40" height="40" rx="20" fill="white" fill-opacity="0.1"/>
<path d="M16.9083 26.8758C23.1975 26.8758 26.6375 21.665 26.6375 17.1466C26.6375 16.9983 26.6375 16.8508 26.6275 16.705C27.2968 16.2204 27.8745 15.6205 28.3333 14.9333C27.7092 15.21 27.0471 15.3914 26.3692 15.4716C27.083 15.0442 27.6173 14.3719 27.8725 13.58C27.2014 13.9782 26.4673 14.2589 25.7017 14.41C24.6418 13.2822 22.9571 13.006 21.5926 13.7363C20.2282 14.4667 19.5236 16.0217 19.8742 17.5291C17.1247 17.3913 14.5631 16.0928 12.8267 13.9566C11.9192 15.5188 12.3826 17.5174 13.885 18.5208C13.3411 18.505 12.8089 18.3587 12.3333 18.0941V18.1375C12.334 19.765 13.4813 21.1668 15.0767 21.4891C14.5732 21.6264 14.0449 21.6463 13.5325 21.5475C13.9804 22.9406 15.2643 23.8951 16.7275 23.9225C15.2955 25.0477 13.4748 25.5573 11.6667 25.3391C13.2305 26.3427 15.0502 26.875 16.9083 26.8725V26.8758Z" fill="#CBD5E1"/>
</svg>
